<?xml version="1.0" encoding="UTF-8" standalone="no"?>
<!-- Created with Inkscape (http://www.inkscape.org/) -->

<svg
   width="225mm"
   height="225mm"
   viewBox="0 0 225 225"
   version="1.1"
   id="svg5"
   xml:space="preserve"
   xmlns:inkscape="http://www.inkscape.org/namespaces/inkscape"
   xmlns:sodipodi="http://sodipodi.sourceforge.net/DTD/sodipodi-0.dtd"
   xmlns="http://www.w3.org/2000/svg"
   xmlns:svg="http://www.w3.org/2000/svg"><sodipodi:namedview
     id="namedview7"
     pagecolor="#ffffff"
     bordercolor="#000000"
     borderopacity="0.25"
     inkscape:showpageshadow="2"
     inkscape:pageopacity="0.0"
     inkscape:pagecheckerboard="0"
     inkscape:deskcolor="#d1d1d1"
     inkscape:document-units="mm"
     showgrid="false" /><defs
     id="defs2" /><g
     inkscape:label="Layer 1"
     inkscape:groupmode="layer"
     id="layer1"><path
       style="fill:#000000;stroke-width:0.997917"
       d="m 100.31371,224.02118 c -1.372133,-0.24262 -5.189163,-0.90828 -8.482293,-1.47926 -33.06163,-5.73244 -63.755565,-28.88748 -79.285125,-59.81151 -30.72487,-61.18246 0.4327,-136.062065 65.314295,-156.9669376 13.26077,-4.272624 19.18398,-5.14518604 34.927083,-5.14518604 15.7431,0 21.66632,0.87256204 34.92708,5.14518604 22.30777,7.1875706 42.9183,22.2888956 56.30577,41.2552066 46.89299,66.434291 11.33445,157.684881 -68.28077,175.222611 -6.76557,1.49033 -30.35931,2.67574 -35.42604,1.77989 z M 78.741357,150.92843 c 1.37397,-10.35745 10.12153,-21.71592 20.35766,-26.43386 6.705753,-3.09075 20.671553,-3.09075 27.377303,0 10.23613,4.71794 18.98369,16.07641 20.35766,26.43386 0.62621,4.72065 0.70869,4.81657 4.14168,4.81657 h 3.50275 l -0.52742,-5.81649 c -1.01711,-11.21691 -8.18809,-22.19772 -18.75581,-28.72049 l -5.92533,-3.65731 4.44256,-4.13712 c 6.33981,-5.90389 8.97257,-12.22679 8.96697,-21.535264 -0.004,-6.156506 -0.47162,-8.369621 -2.63741,-12.473959 -5.75011,-10.896928 -15.39657,-16.857323 -27.2543,-16.839997 -9.35867,0.01367 -15.949863,2.928956 -22.278923,9.853962 -11.11866,12.165583 -10.6972,29.194528 1.00465,40.592488 l 4.86862,4.74218 -4.19592,2.1406 c -10.36953,5.29014 -19.5315,18.6732 -20.56175,30.03491 l -0.52742,5.81649 h 3.50275 c 3.43298,0 3.51547,-0.0959 4.14168,-4.81657 z m 27.095293,-37.29397 c -2.52897,-0.70289 -5.81621,-2.95882 -9.107693,-6.2503 -4.19775,-4.19776 -5.36132,-6.1338 -6.29058,-10.466801 -3.21927,-15.010928 7.25589,-28.253308 22.349293,-28.253308 20.22805,0 30.41279,23.634203 16.60118,38.523899 -5.62467,6.06371 -15.35102,8.72592 -23.5522,6.44651 z"
       id="path302" /></g></svg>
