<?xml version="1.0" encoding="UTF-8" standalone="no"?>
<!-- Created with Inkscape (http://www.inkscape.org/) -->

<svg
   width="868mm"
   height="694mm"
   viewBox="0 0 868 694"
   version="1.1"
   id="svg5"
   xml:space="preserve"
   xmlns:inkscape="http://www.inkscape.org/namespaces/inkscape"
   xmlns:sodipodi="http://sodipodi.sourceforge.net/DTD/sodipodi-0.dtd"
   xmlns="http://www.w3.org/2000/svg"
   xmlns:svg="http://www.w3.org/2000/svg"><sodipodi:namedview
     id="namedview7"
     pagecolor="#ffffff"
     bordercolor="#000000"
     borderopacity="0.25"
     inkscape:showpageshadow="2"
     inkscape:pageopacity="0.0"
     inkscape:pagecheckerboard="0"
     inkscape:deskcolor="#d1d1d1"
     inkscape:document-units="mm"
     showgrid="false"
     inkscape:lockguides="false" /><defs
     id="defs2" /><g
     inkscape:label="Layer 1"
     inkscape:groupmode="layer"
     id="layer1"><path
       style="fill:#000000;stroke-width:0.994991"
       d="m 169.42937,664.49094 c 0,-0.51257 1.45518,-1.07225 3.23373,-1.24374 l 3.23372,-0.31179 v -6.46744 c 0,-6.34975 -0.051,-6.47328 -2.7964,-6.78809 -3.63305,-0.41658 -5.83775,1.48557 -5.46259,4.71293 0.24399,2.09893 0.89451,2.63006 3.53278,2.88444 4.2323,0.40807 4.19188,2.17569 -0.0498,2.17569 -4.22372,0 -5.67145,-1.52393 -5.67145,-5.96995 0,-4.7547 1.45116,-5.96995 7.12893,-5.96995 5.69992,0 6.80095,1.44975 6.80095,8.95493 0,7.19378 -1.18098,8.95492 -6.00495,8.95492 -2.16973,0 -3.94497,-0.41938 -3.94497,-0.93195 z m 201.98327,0 c 0,-0.51257 1.45518,-1.07225 3.23372,-1.24374 3.23161,-0.31158 3.23391,-0.31585 3.52916,-6.49981 0.27966,-5.85771 0.16435,-6.22092 -2.16004,-6.80431 -4.53391,-1.13794 -6.09533,-0.22764 -6.09533,3.55354 0,3.18628 0.26341,3.49424 3.23373,3.78063 4.61776,0.44524 4.00726,2.17569 -0.76758,2.17569 -4.92091,0 -6.82142,-2.92483 -5.32009,-8.18743 0.86395,-3.02837 1.26075,-3.2763 5.69979,-3.56139 6.71979,-0.43157 7.60156,0.64452 7.60156,9.27673 0,5.67872 -0.33839,7.364 -1.57386,7.83809 -2.43249,0.93343 -7.38106,0.71353 -7.38106,-0.328 z m 89.54923,0.0572 c 0,-0.54404 1.45518,-1.12946 3.23372,-1.30095 l 3.23373,-0.31179 v -6.46744 -6.46745 h -3.97997 c -3.8852,0 -3.97997,0.0829 -3.97997,3.48247 0,3.20166 0.26076,3.50762 3.23373,3.79426 4.57577,0.44119 4.02767,2.17569 -0.68752,2.17569 -4.5803,0 -5.30505,-0.8471 -5.30505,-6.20065 0,-4.66713 1.24267,-5.70315 6.86573,-5.72401 5.63122,-0.0209 6.48772,1.38746 6.13723,10.09139 l -0.2942,7.30572 -4.22871,0.30596 c -2.34437,0.16962 -4.22872,-0.13482 -4.22872,-0.6832 z m -405.95651,-7.1506 c 0,-8.47217 0.97174,-9.88451 6.80095,-9.88451 5.67776,0 7.12893,1.21525 7.12893,5.96995 0,1.97009 -0.5373,4.11927 -1.19399,4.77596 -1.44074,1.44074 -7.76094,1.60279 -7.76094,0.199 0,-0.54725 1.33471,-0.99499 2.96602,-0.99499 2.33803,0 3.09889,-0.52941 3.59358,-2.50041 0.86752,-3.45648 -1.19204,-5.63146 -4.98236,-5.26159 -3.06341,0.29895 -3.07033,0.31337 -3.36393,7.01575 -0.22245,5.07798 -0.64717,6.7162 -1.74124,6.7162 -1.107,0 -1.44702,-1.41819 -1.44702,-6.03536 z m 434.37032,1.80664 c 0.80284,-2.61184 1.26086,-3.24297 1.89397,-2.60986 0.76005,0.76006 -0.61959,4.84859 -1.63612,4.84859 -0.5216,0 -0.63728,-1.00434 -0.25785,-2.23873 z M 16.39969,658.25895 c -0.71058,-0.71058 -1.19399,-4.13475 -1.19399,-8.45743 v -7.26343 h 7.46243 c 9.00604,0 10.01269,1.77354 1.24374,2.19125 l -6.21869,0.29623 v 5.96994 5.96995 l 6.21869,0.29623 c 3.42029,0.16292 6.2187,0.7226 6.2187,1.24374 0,1.38926 -12.31623,1.16817 -13.73088,-0.24648 z m 16.91495,-4.52721 0.2984,-5.7212 7.46243,-0.2552 c 4.10434,-0.14035 8.08326,0.14774 8.84205,0.64019 0.75878,0.49246 1.5993,3.18185 1.86782,5.9764 0.40013,4.16415 0.2059,5.08101 -1.07634,5.08101 -1.1606,0 -1.64286,-1.22027 -1.86782,-4.72621 -0.25422,-3.9618 -0.62513,-4.72621 -2.29325,-4.72621 -1.66813,0 -2.03904,0.76441 -2.29325,4.72621 -0.16679,2.59942 -0.70195,4.72621 -1.18922,4.72621 -0.48728,0 -1.02243,-2.12679 -1.18922,-4.72621 -0.27573,-4.29709 -0.52912,-4.72621 -2.79075,-4.72621 -2.26163,0 -2.51501,0.42912 -2.79074,4.72621 -0.21789,3.39566 -0.72207,4.72621 -1.79089,4.72621 -1.18229,0 -1.42638,-1.17427 -1.18922,-5.7212 z m 39.79956,4.52721 c -0.65669,-0.65669 -1.19399,-2.80587 -1.19399,-4.77596 0,-4.72587 1.45142,-5.96995 6.96494,-5.96995 5.51352,0 6.96494,1.24408 6.96494,5.96995 0,4.72587 -1.45142,5.96995 -6.96494,5.96995 -2.51733,0 -5.11426,-0.53729 -5.77095,-1.19399 z m 10.23648,-2.74839 c 1.07953,-3.40127 -1.19139,-6.16457 -4.78038,-5.81689 -2.87678,0.27867 -3.19597,0.64944 -3.47643,4.03807 l -0.30881,3.73122 h 3.97298 c 3.07362,0 4.11325,-0.44196 4.59264,-1.9524 z m 6.47938,-2.02757 c 0,-3.31663 0.44221,-5.96995 0.99499,-5.96995 0.54724,0 0.99499,1.34324 0.99499,2.98498 0,1.64173 0.36398,2.98497 0.80884,2.98497 0.44486,0 2.09574,-1.34324 3.66862,-2.98497 1.57288,-1.64174 3.22376,-2.98498 3.66863,-2.98498 0.44486,0 0.80883,1.8283 0.80883,4.06288 0,4.97679 1.63591,4.83206 4.47746,-0.39612 1.76151,-3.24101 4.47747,-4.99595 4.47747,-2.89316 0,2.27907 -7.67133,11.1663 -9.63858,11.1663 -0.78815,0 -1.30633,-1.18404 -1.30633,-2.98497 0,-1.64174 -0.36398,-2.98498 -0.80884,-2.98498 -0.44486,0 -2.09574,1.34324 -3.66862,2.98498 -1.57288,1.64173 -3.22377,2.98497 -3.66863,2.98497 -0.44486,0 -0.80883,-2.68648 -0.80883,-5.96995 z m 22.9198,4.04538 c -1.40257,-2.62073 -1.29481,-6.28784 0.24671,-8.396 0.97966,-1.33976 2.4028,-1.67337 6.11677,-1.43391 5.49861,0.35454 7.82111,2.52154 5.93306,5.53578 -1.2079,1.92839 -8.35157,3.04361 -8.35157,1.30381 0,-0.58029 1.31681,-1.05506 2.92625,-1.05506 1.60943,0 3.23392,-0.4978 3.60994,-1.10623 0.98657,-1.5963 -1.5781,-2.93641 -5.04371,-2.63545 -2.69869,0.23435 -2.98497,0.5932 -2.98497,3.74168 0,3.20166 0.26076,3.50762 3.23372,3.79426 4.58824,0.44239 4.02163,2.17569 -0.71124,2.17569 -2.88193,0 -4.2225,-0.5186 -4.97496,-1.92457 z m 15.88486,-2.85139 c 0,-2.62678 0.5373,-5.31325 1.19399,-5.96995 1.43973,-1.43972 8.75593,-1.606 8.75593,-0.19899 0,0.54724 -1.08275,0.99499 -2.4061,0.99499 -4.60904,0 -5.55383,0.94906 -5.55383,5.5789 0,2.40405 -0.44775,4.37101 -0.995,4.37101 -0.54724,0 -0.99499,-2.14918 -0.99499,-4.77596 z m 13.92988,-1.19399 c 0,-3.31663 0.44222,-5.96995 0.995,-5.96995 0.55277,0 0.99499,2.65332 0.99499,5.96995 0,3.31664 -0.44222,5.96995 -0.99499,5.96995 -0.55278,0 -0.995,-2.65331 -0.995,-5.96995 z m 5.96995,0 v -5.96995 h 4.78479 c 6.23988,0 7.9963,1.44366 8.77651,7.21369 0.53718,3.9727 0.37956,4.72621 -0.98867,4.72621 -1.22712,0 -1.62772,-0.94954 -1.62772,-3.85814 0,-4.52115 -1.76185,-6.36201 -5.66104,-5.91492 -2.57667,0.29545 -2.82022,0.69198 -3.09965,5.04685 -0.4375,6.81821 -2.18422,5.8236 -2.18422,-1.24374 z m 48.75458,3.45125 c 0,-1.50021 -0.70411,-2.76841 -1.74123,-3.13621 -3.62912,-1.28702 -5.22371,-3.58169 -5.22371,-7.5171 0,-2.68982 0.38784,-3.77641 1.24374,-3.48452 0.68406,0.23328 1.10664,1.37237 0.93908,2.53131 -0.16758,1.15894 0.1965,3.04362 0.80904,4.18818 0.92886,1.73557 1.88786,2.0311 5.77713,1.78031 4.61293,-0.29744 4.66878,-0.34292 5.16089,-4.20288 0.61695,-4.83909 2.98498,-6.09869 2.98498,-1.58777 0,4.12657 -1.55376,6.86584 -4.53796,8.00044 -1.68815,0.64183 -2.42698,1.68748 -2.42698,3.43484 0,1.56966 -0.55993,2.5121 -1.49249,2.5121 -0.93359,0 -1.49249,-0.94318 -1.49249,-2.5187 z m 14.17863,1.8825 c -1.73487,-0.73179 -1.60029,-8.77414 0.17145,-10.24455 0.79189,-0.65722 3.53076,-1.03953 6.2187,-0.86807 l 4.80351,0.30642 v 5.47245 5.47246 l -4.97496,0.19295 c -2.73623,0.10613 -5.53464,-0.0431 -6.2187,-0.33166 z m 9.20367,-5.32012 c 0,-3.77052 -1.56214,-4.69129 -6.04864,-3.56525 -1.83456,0.46044 -2.40878,1.27209 -2.40878,3.40475 0,3.6911 0.73965,4.27892 4.93939,3.92544 3.29803,-0.27758 3.51803,-0.51303 3.51803,-3.76494 z m 8.20868,4.90622 c -1.28392,-0.76595 -1.74123,-2.33236 -1.74123,-5.96428 0,-2.70903 0.44774,-4.92552 0.99499,-4.92552 0.54724,0 0.99499,1.73616 0.99499,3.85814 0,4.52115 1.76185,6.36202 5.66103,5.91493 2.58281,-0.29616 2.81976,-0.68652 3.10227,-5.11074 0.43397,-6.7962 2.6791,-5.63092 2.6791,1.39054 v 5.38954 l -4.97495,0.24307 c -2.73623,0.1337 -5.75852,-0.22436 -6.7162,-0.79568 z m 24.12855,-4.91985 c 0,-3.31663 0.44221,-5.96995 0.99499,-5.96995 0.55277,0 0.99499,2.65332 0.99499,5.96995 0,3.31664 -0.44222,5.96995 -0.99499,5.96995 -0.55278,0 -0.99499,-2.65331 -0.99499,-5.96995 z m 5.96994,0 v -5.96995 h 5.41604 c 4.46884,0 5.68692,0.38675 6.96494,2.21138 2.05389,2.93234 2.0933,9.72852 0.0564,9.72852 -1.10461,0 -1.49249,-1.15872 -1.49249,-4.45851 0,-3.89058 -0.30771,-4.53572 -2.41567,-5.06479 -4.70242,-1.18024 -6.53925,0.25594 -6.53925,5.11289 0,2.42572 -0.44775,4.41041 -0.99499,4.41041 -0.55278,0 -0.995,-2.65331 -0.995,-5.96995 z m 28.85476,1.55954 c 0,-3.53656 -0.39429,-4.53556 -1.98999,-5.04201 -1.09449,-0.34738 -1.98998,-0.99695 -1.98998,-1.44349 0,-0.44654 0.89549,-1.04607 1.98998,-1.33228 1.19061,-0.31136 1.98999,-1.35718 1.98999,-2.60353 0,-2.79533 1.76844,-2.6685 2.16953,0.1556 0.20433,1.43872 1.11796,2.35235 2.55668,2.55668 1.2313,0.17487 2.23873,0.70342 2.23873,1.17454 0,0.47111 -1.00743,0.99966 -2.23873,1.17453 -1.91047,0.27133 -2.2832,1.01097 -2.542,5.04416 -0.38304,5.96953 -2.18421,6.22995 -2.18421,0.3158 z m 10.9449,-4.54451 c 0,-5.30662 0.40537,-8.95492 0.99499,-8.95492 0.58963,0 0.995,3.6483 0.995,8.95492 0,5.30662 -0.40537,8.95492 -0.995,8.95492 -0.58962,0 -0.99499,-3.6483 -0.99499,-8.95492 z m 10.75068,4.22871 c -0.29079,-4.53169 -0.43636,-4.73904 -3.53699,-5.038 -4.0198,-0.38758 -4.29112,-2.17569 -0.33013,-2.17569 5.35434,0 6.05133,0.75718 6.05133,6.5739 0,6.61935 -1.76731,7.13703 -2.18421,0.63979 z m 7.35817,3.53222 c -1.5447,-1.54469 -1.5447,-8.00722 0,-9.55192 1.74245,-1.74245 9.31066,-1.4921 11.17233,0.36957 1.84978,1.84978 1.86565,1.98277 0.53356,4.4718 -0.75635,1.41326 -2.09369,1.92458 -5.03368,1.92458 -2.41575,0 -3.75978,-0.39464 -3.38874,-0.995 0.33822,-0.54724 1.96458,-0.99499 3.61415,-0.99499 2.31326,0 2.92301,-0.39563 2.66608,-1.72981 -0.38427,-1.99536 -2.8748,-2.69628 -6.41942,-1.80663 -2.08211,0.52257 -2.42079,1.12143 -2.16004,3.81933 0.27116,2.80546 0.70758,3.23799 3.54297,3.51137 1.77855,0.17149 3.23372,0.73117 3.23372,1.24374 0,1.35708 -6.35643,1.14246 -7.76093,-0.26204 z m 23.68079,-7.26344 v -8.45742 h 5.85973 c 7.27465,0 9.96888,1.87894 10.71505,7.4726 0.41369,3.10119 0.0576,4.56849 -1.62738,6.70602 -1.95295,2.47744 -2.76177,2.73623 -8.55217,2.73623 h -6.39523 z m 12.7359,5.27346 c 0.65669,-0.6567 1.19399,-3.10355 1.19399,-5.43745 0,-4.61842 -1.68963,-6.30345 -6.32066,-6.30345 -4.85592,0 -5.61924,0.87048 -5.61924,6.40806 0,2.8601 0.2985,5.49867 0.66333,5.8635 1.1327,1.13271 8.82401,0.7279 10.08258,-0.53066 z m 7.16393,-2.78598 c 0,-4.64329 0.33166,-5.96995 1.49249,-5.96995 1.16083,0 1.49249,1.32666 1.49249,5.96995 0,4.6433 -0.33166,5.96995 -1.49249,5.96995 -1.16083,0 -1.49249,-1.32665 -1.49249,-5.96995 z m 23.8798,0 c 0,-3.31663 0.44221,-5.96995 0.99499,-5.96995 0.55278,0 0.99499,2.65332 0.99499,5.96995 0,3.31664 -0.44221,5.96995 -0.99499,5.96995 -0.55278,0 -0.99499,-2.65331 -0.99499,-5.96995 z m 8.95492,1.39934 c 0,-3.73383 -0.36432,-4.66588 -1.98998,-5.091 -1.09449,-0.28622 -1.98998,-0.91592 -1.98998,-1.39934 0,-0.48342 0.89549,-0.87895 1.98998,-0.87895 1.45932,0 1.98998,-0.66333 1.98998,-2.48747 0,-1.54777 0.56383,-2.48748 1.49249,-2.48748 0.92865,0 1.49249,0.93971 1.49249,2.48748 0,1.98998 0.49749,2.48747 2.48748,2.48747 3.09545,0 3.2946,1.73695 0.24874,2.16953 -1.91046,0.27133 -2.28319,1.01097 -2.54199,5.04416 -0.21292,3.31822 -0.73166,4.72621 -1.74124,4.72621 -1.04527,0 -1.43797,-1.24819 -1.43797,-4.57061 z m 10.65666,3.95069 c -1.11782,-1.11781 -0.82307,-4.83571 0.48725,-6.14602 1.4045,-1.4045 7.76093,-1.61912 7.76093,-0.26204 0,0.51257 -1.45517,1.07225 -3.23372,1.24374 -4.96519,0.47873 -4.32731,3.29676 0.74624,3.29676 3.8852,0 3.97997,-0.0829 3.97997,-3.48247 0,-3.30596 -0.18912,-3.49812 -3.73122,-3.79128 -4.92214,-0.40737 -4.81896,-2.17867 0.12692,-2.17867 4.87457,0 6.29405,1.71673 5.90383,7.14016 l -0.30955,4.30225 -5.51195,0.29215 c -3.03158,0.1607 -5.83,-0.0259 -6.2187,-0.41458 z m 17.4021,-0.57407 c -1.47046,-1.47046 -1.65194,-16.71585 -0.199,-16.71585 0.57526,0 0.99499,3.16121 0.99499,7.49365 0,5.74317 0.34865,7.62746 1.49249,8.06639 0.82087,0.315 1.49249,0.97256 1.49249,1.46126 0,1.28411 -2.38401,1.09151 -3.78097,-0.30545 z m 14.72588,-4.82118 c 0,-5.09231 0.38229,-6.39748 2.49177,-8.50696 2.17526,-2.17526 3.21796,-2.45389 8.20868,-2.1935 l 5.7169,0.29827 0.28899,8.20868 c 0.23559,6.69206 0.0186,8.20868 -1.17454,8.20868 -0.80494,0 -1.6066,-1.00743 -1.78147,-2.23873 -0.28571,-2.01174 -0.8728,-2.23873 -5.7904,-2.23873 -4.91761,0 -5.50469,0.22699 -5.79041,2.23873 -0.65803,4.63331 -2.16952,2.00228 -2.16952,-3.77644 z m 13.7412,-4.68099 c -0.25216,-3.04654 -0.73696,-3.79183 -2.64202,-4.06154 -3.38729,-0.47957 -7.83909,1.65825 -8.46896,4.06694 -0.83405,3.18935 0.0221,3.72582 5.94598,3.72582 h 5.4738 z m 24.7318,10.03283 c -1.13271,-1.1327 -0.7279,-8.82401 0.53066,-10.08258 1.68118,-1.68117 9.24593,-1.50887 10.70046,0.24374 0.65625,0.79074 1.04689,2.46978 0.86807,3.73121 -0.27279,1.92429 -1.00588,2.34275 -4.55384,2.59946 -4.90407,0.35482 -5.84261,-1.51676 -0.99499,-1.98415 2.058,-0.19843 3.23372,-0.84948 3.23372,-1.79065 0,-1.74783 -2.65735,-2.42643 -6.10914,-1.56009 -2.08211,0.52257 -2.42079,1.12143 -2.16003,3.81933 0.27115,2.80546 0.70757,3.23799 3.54296,3.51137 1.77855,0.17149 3.23372,0.73117 3.23372,1.24374 0,1.05423 -7.27045,1.28976 -8.29159,0.26862 z m 30.83312,-1.15625 c -1.08046,-1.19389 -1.64671,-3.5695 -1.64671,-6.90852 0,-4.13083 0.41635,-5.38056 2.21138,-6.63785 3.00001,-2.10128 9.95828,-1.99004 12.66595,0.2025 3.25576,2.63636 3.79777,8.96059 1.06506,12.42722 -1.8653,2.36626 -2.86625,2.73623 -7.40296,2.73623 -3.81864,0 -5.69408,-0.49509 -6.89272,-1.81958 z m 12.08418,-1.36439 c 0.65669,-0.6567 1.19399,-3.10355 1.19399,-5.43745 0,-3.17705 -0.48366,-4.5023 -1.92458,-5.27346 -2.84518,-1.52269 -7.66258,-1.2506 -9.44675,0.53357 -2.18474,2.18473 -2.06732,8.98905 0.17767,10.29664 2.4054,1.40102 8.55269,1.32767 9.99967,-0.1193 z m 7.36303,-2.53723 0.2984,-5.7212 4.8316,-0.30757 c 6.3756,-0.40585 8.6008,1.51562 8.6008,7.42672 0,2.37778 -0.4478,4.32325 -0.995,4.32325 -0.5472,0 -0.995,-1.53513 -0.995,-3.4114 0,-4.18325 -2.3633,-6.74765 -5.8463,-6.34378 -2.35829,0.27345 -2.64049,0.76041 -2.91439,5.02897 -0.21789,3.39566 -0.72207,4.72621 -1.79089,4.72621 -1.18229,0 -1.42637,-1.17427 -1.18922,-5.7212 z m 17.7458,3.79663 c -1.4026,-2.62073 -1.2949,-6.28784 0.2467,-8.396 0.9796,-1.33976 2.4028,-1.67337 6.1167,-1.43391 5.4986,0.35454 7.8211,2.52154 5.9331,5.53578 -1.2079,1.92839 -8.3516,3.04361 -8.3516,1.30381 0,-0.58029 1.3168,-1.05506 2.9263,-1.05506 1.6094,0 3.2339,-0.4978 3.6099,-1.10623 0.9866,-1.5963 -1.5781,-2.93641 -5.0437,-2.63545 -2.6987,0.23435 -2.985,0.5932 -2.985,3.74168 0,3.20166 0.2608,3.50762 3.2338,3.79426 4.5882,0.44239 4.0216,2.17569 -0.7113,2.17569 -2.8819,0 -4.2225,-0.5186 -4.9749,-1.92457 z m 25.0387,0.73058 c -1.4635,-1.46357 -1.5787,-11.15281 -0.164,-13.79629 0.8553,-1.59809 2.1213,-1.92457 7.4625,-1.92457 7.9658,0 8.5443,1.78052 0.7112,2.18908 l -5.7212,0.2984 -0.2962,6.21869 -0.2962,6.2187 h 6.0174 c 3.3483,0 6.0174,0.44135 6.0174,0.99499 0,1.42641 -12.2835,1.24839 -13.7309,-0.199 z m 17.65,-1.45357 c -1.1471,-3.0172 -0.4421,-7.35962 1.3835,-8.52089 2.033,-1.29317 9.3164,-0.84642 10.5563,0.64751 0.6477,0.78042 1.0383,3.35496 0.868,5.7212 l -0.3095,4.30225 -5.7269,0.29856 c -5.4529,0.28429 -5.7769,0.16715 -6.7714,-2.44863 z m 10.8175,-3.0395 c 0.2608,-2.6979 -0.078,-3.29676 -2.16,-3.81933 -3.8431,-0.96457 -6.0787,-0.13959 -6.4366,2.37523 -0.5849,4.11037 0.4966,5.2881 4.5482,4.95297 3.4062,-0.28175 3.7667,-0.59421 4.0484,-3.50887 z m 6.1582,-0.28289 v -5.96995 h 4.5429 c 6.9867,0 8.392,1.17222 8.392,6.99995 0,2.71697 -0.4477,4.93995 -0.995,4.93995 -0.5472,0 -0.9949,-1.73616 -0.9949,-3.85814 0,-4.52115 -1.7619,-6.36201 -5.6611,-5.91492 -2.5767,0.29545 -2.8202,0.69198 -3.0996,5.04685 -0.4375,6.81821 -2.1843,5.8236 -2.1843,-1.24374 z m 17.114,0.24875 0.2984,-5.7212 4.8316,-0.30757 c 6.3756,-0.40585 8.6008,1.51562 8.6008,7.42672 0,2.37778 -0.4478,4.32325 -0.995,4.32325 -0.5473,0 -0.995,-1.53513 -0.995,-3.4114 0,-3.92063 -2.1398,-6.53851 -5.3445,-6.53851 -3.2102,0 -4.6054,1.86889 -4.6054,6.16894 0,2.07954 -0.4701,3.78097 -1.0447,3.78097 -0.643,0 -0.9299,-2.19963 -0.7462,-5.7212 z m 17.7457,3.79663 c -1.4025,-2.62073 -1.2948,-6.28784 0.2468,-8.396 0.9796,-1.33976 2.4028,-1.67337 6.1167,-1.43391 5.4986,0.35454 7.8211,2.52154 5.9331,5.53578 -1.2079,1.92839 -8.3516,3.04361 -8.3516,1.30381 0,-0.58029 1.3168,-1.05506 2.9263,-1.05506 1.6094,0 3.2339,-0.4978 3.6099,-1.10623 0.9866,-1.5963 -1.5781,-2.93641 -5.0437,-2.63545 -2.6756,0.23235 -3.017,0.64591 -3.2938,3.99043 -0.2939,3.55143 -0.1649,3.73122 2.6775,3.73122 1.6425,0 3.2631,0.44774 3.6013,0.99499 0.371,0.60036 -0.973,0.99499 -3.3888,0.99499 -2.94,0 -4.2773,-0.51131 -5.0337,-1.92457 z m 16.5482,1.26124 c -1.1327,-1.1327 -0.7279,-8.82401 0.5307,-10.08258 1.4382,-1.43824 10.7459,-1.6106 10.7459,-0.19899 0,0.54724 -1.679,1.00184 -3.7312,1.01022 -5.0026,0.0204 -6.4447,1.10985 -6.0496,4.57019 0.305,2.67172 0.6657,2.89865 5.0546,3.18028 2.5994,0.1668 4.7262,0.72648 4.7262,1.24374 0,1.05725 -10.2447,1.30904 -11.2766,0.27714 z m 18.2415,-3.30821 c 0,-2.89395 -0.5399,-4.30872 -1.9899,-5.21429 -2.5314,-1.58087 -2.5153,-2.38461 0.061,-3.0584 1.2605,-0.32964 1.9318,-1.19758 1.7412,-2.25155 -0.1705,-0.94332 0.2151,-1.89932 0.857,-2.12445 0.6418,-0.22512 1.3134,0.62392 1.4924,1.88677 0.212,1.49562 1.106,2.40691 2.5642,2.61402 1.2313,0.17487 2.2388,0.70342 2.2388,1.17454 0,0.47111 -1.0075,0.99966 -2.2388,1.17453 -1.9104,0.27133 -2.2832,1.01097 -2.542,5.04416 -0.3669,5.71861 -2.1841,6.34649 -2.1841,0.75467 z m 10.945,-1.99841 c 0,-3.31663 0.4422,-5.96995 0.9949,-5.96995 0.5528,0 0.995,2.65332 0.995,5.96995 0,3.31664 -0.4422,5.96995 -0.995,5.96995 -0.5527,0 -0.9949,-2.65331 -0.9949,-5.96995 z m 6.4195,4.89747 c -1.2597,-2.03819 -0.7968,-9.04174 0.6585,-9.96336 2.2112,-1.40038 9.4692,-1.0534 10.7708,0.5149 0.6477,0.78042 1.0383,3.35496 0.868,5.7212 l -0.3095,4.30225 -5.6334,0.29578 c -3.532,0.18544 -5.9024,-0.13938 -6.3544,-0.87077 z m 10.3071,-4.61458 c 0.2607,-2.6979 -0.078,-3.29676 -2.1601,-3.81933 -3.8431,-0.96457 -6.0787,-0.13959 -6.4366,2.37523 -0.5849,4.11037 0.4966,5.2881 4.5482,4.95297 3.4062,-0.28175 3.7668,-0.59421 4.0485,-3.50887 z m 6.1582,-0.28289 v -5.96995 h 4.7847 c 6.2399,0 7.9963,1.44366 8.7766,7.21369 0.5371,3.9727 0.3795,4.72621 -0.9887,4.72621 -1.2271,0 -1.6277,-0.94954 -1.6277,-3.85814 0,-4.52115 -1.7619,-6.36201 -5.6611,-5.91492 -2.5767,0.29545 -2.8202,0.69198 -3.0996,5.04685 -0.4375,6.81821 -2.1842,5.8236 -2.1842,-1.24374 z m 25.2623,4.54983 c -0.2997,-0.78107 -0.3976,-2.46012 -0.2175,-3.73122 0.2755,-1.9446 0.998,-2.35961 4.5562,-2.61705 4.904,-0.35483 5.8426,1.51675 0.9949,1.98415 -4.9651,0.47873 -4.3273,3.29676 0.7463,3.29676 3.6499,0 4.0072,-0.23856 4.3084,-2.87701 0.3727,-3.26486 -1.0463,-4.54787 -5.0547,-4.57019 -1.5049,-0.008 -2.7362,-0.46298 -2.7362,-1.01022 0,-1.40701 7.3162,-1.24073 8.7559,0.19899 0.6567,0.6567 1.194,2.80588 1.194,4.77596 0,1.97009 -0.5373,4.11927 -1.194,4.77596 -1.7313,1.73132 -10.6705,1.55327 -11.3533,-0.22613 z m 19.5123,-3.15049 c 0,-3.73383 -0.3644,-4.66588 -1.99,-5.091 -1.0945,-0.28622 -1.99,-0.8637 -1.99,-1.28329 0,-0.4196 0.8955,-0.99708 1.99,-1.28329 1.1906,-0.31136 1.99,-1.35718 1.99,-2.60353 0,-2.79533 1.7684,-2.6685 2.1695,0.1556 0.2277,1.60294 1.095,2.32814 3.0542,2.55356 3.6196,0.41649 3.4857,1.774 -0.2488,2.52089 -2.7889,0.55779 -2.9849,0.89273 -2.9849,5.09933 0,2.47629 -0.4478,4.50234 -0.995,4.50234 -0.5473,0 -0.995,-2.05678 -0.995,-4.57061 z m 18.8804,3.04866 c -0.9659,-1.16375 -0.9996,-2.10047 -0.1432,-3.97996 0.8824,-1.93666 1.8631,-2.45802 4.6237,-2.45802 4.1242,0 4.737,1.71547 0.7761,2.17264 -1.6451,0.18989 -2.8587,1.00588 -3.0579,2.05607 -0.2705,1.4263 0.3994,1.74124 3.7037,1.74124 3.4787,0 4.1204,-0.34421 4.6616,-2.50041 0.8518,-3.39393 -1.1114,-5.45952 -5.189,-5.45952 -1.8483,0 -3.3606,-0.44775 -3.3606,-0.99499 0,-1.40955 8.312,-1.23992 9.7509,0.19899 0.6567,0.6567 1.194,2.80588 1.194,4.77596 0,1.97009 -0.5373,4.11927 -1.194,4.77596 -1.7542,1.7542 -10.2335,1.51784 -11.7653,-0.32796 z m 30.8691,-4.74649 c 0,-6.98472 -1.0105,-8.65643 -5.2326,-8.65643 -1.6431,0 -2.585,-0.42028 -2.2298,-0.99499 0.7786,-1.25973 16.4174,-1.31978 16.4174,-0.0631 0,0.51257 -1.4552,1.07225 -3.2338,1.24374 l -3.2337,0.31179 -0.2923,7.21368 c -0.3585,8.84632 -2.1952,9.6372 -2.1952,0.94529 z m 11.9399,0.29849 c 0,-3.31663 0.4423,-5.96995 0.995,-5.96995 0.5528,0 0.995,2.65332 0.995,5.96995 0,3.31664 -0.4422,5.96995 -0.995,5.96995 -0.5527,0 -0.995,-2.65331 -0.995,-5.96995 z m 5.97,0 v -5.96995 h 7.7609 c 4.7096,0 8.2304,0.46943 8.9549,1.19399 1.4383,1.43824 1.6107,10.74591 0.199,10.74591 -0.5472,0 -0.9949,-1.73616 -0.9949,-3.85814 0,-3.91651 -2.0222,-6.80425 -3.9364,-5.62121 -0.5712,0.35303 -1.0386,2.63031 -1.0386,5.06061 0,5.58283 -1.7717,5.81946 -2.1815,0.29136 -0.3258,-4.39428 -2.3663,-6.58115 -5.1457,-5.51461 -1.1756,0.45112 -1.6277,1.87696 -1.6277,5.13331 0,2.47977 -0.4478,4.50868 -0.995,4.50868 -0.5528,0 -0.995,-2.65331 -0.995,-5.96995 z m 22.5531,5.30662 c -1.1327,-1.1327 -0.7279,-8.82401 0.5307,-10.08258 1.6812,-1.68117 9.2459,-1.50887 10.7005,0.24374 0.6562,0.79074 1.0468,2.46978 0.868,3.73121 -0.2728,1.92429 -1.0059,2.34275 -4.5538,2.59946 -4.9041,0.35482 -5.8426,-1.51676 -0.995,-1.98415 4.9652,-0.47873 4.3273,-3.29677 -0.7463,-3.29677 -3.8852,0 -3.9799,0.0829 -3.9799,3.48247 0,3.20166 0.2607,3.50762 3.2337,3.79426 1.7786,0.17149 3.2337,0.73117 3.2337,1.24374 0,1.05423 -7.2704,1.28976 -8.2916,0.26862 z M 19.18566,650.49802 c 0,-0.54725 2.01486,-0.99499 4.47746,-0.99499 2.46261,0 4.47747,0.44774 4.47747,0.99499 0,0.54724 -2.01486,0.99499 -4.47747,0.99499 -2.4626,0 -4.47746,-0.44775 -4.47746,-0.99499 z m 123.37894,-7.95993 c 0,-0.54725 0.44775,-0.99499 0.995,-0.99499 0.54724,0 0.99499,0.44774 0.99499,0.99499 0,0.54724 -0.44775,0.99499 -0.99499,0.99499 -0.54725,0 -0.995,-0.44775 -0.995,-0.99499 z m 110.44406,0 c 0,-0.54725 0.44774,-0.99499 0.99499,-0.99499 0.54724,0 0.99499,0.44774 0.99499,0.99499 0,0.54724 -0.44775,0.99499 -0.99499,0.99499 -0.54725,0 -0.99499,-0.44775 -0.99499,-0.99499 z m 107.45907,0 c 0,-0.54725 0.67162,-0.99499 1.49249,-0.99499 0.82087,0 1.49249,0.44774 1.49249,0.99499 0,0.54724 -0.67162,0.99499 -1.49249,0.99499 -0.82087,0 -1.49249,-0.44775 -1.49249,-0.99499 z m 23.8798,0 c 0,-0.54725 0.42132,-0.99499 0.93627,-0.99499 0.51494,0 1.21299,0.44774 1.55121,0.99499 0.33822,0.54724 -0.0831,0.99499 -0.93627,0.99499 -0.85316,0 -1.55121,-0.44775 -1.55121,-0.99499 z m 297.99999,0 c 0.3382,-0.54725 1.0362,-0.99499 1.5512,-0.99499 0.5149,0 0.9362,0.44774 0.9362,0.99499 0,0.54724 -0.698,0.99499 -1.5512,0.99499 -0.8531,0 -1.2745,-0.44775 -0.9362,-0.99499 z m 129.8463,0 c 0,-0.54725 0.4478,-0.99499 0.995,-0.99499 0.5473,0 0.995,0.44774 0.995,0.99499 0,0.54724 -0.4477,0.99499 -0.995,0.99499 -0.5472,0 -0.995,-0.44775 -0.995,-0.99499 z m -258.7769,-43.72744 c -15.6595,-2.86513 -22.4104,-13.24313 -21.6387,-33.26456 0.3387,-8.7842 0.7508,-10.73136 3.2287,-15.25214 3.4967,-6.37933 8.0745,-9.65752 16.4992,-11.81512 12.9284,-3.311 28.4098,-0.1065 34.834,7.21027 5.3074,6.04478 6.3424,9.63713 6.403,22.22463 0.051,10.60323 -0.1512,11.8626 -2.7583,17.17187 -3.1178,6.34931 -7.0554,9.86993 -13.6353,12.19145 -5.3619,1.89178 -16.7958,2.65642 -22.9326,1.5336 z m 18.9255,-13.78507 c 4.8263,-3.59697 6.5158,-7.90495 6.5158,-16.61435 0,-12.41807 -4.5434,-18.33487 -14.7275,-19.17942 -11.7536,-0.97469 -18.6008,5.74757 -18.589,18.24982 0,3.24751 0.4479,7.49712 0.9887,9.44359 1.1482,4.13324 5.4585,8.60419 9.5569,9.91307 4.3281,1.38223 13.3125,0.38032 16.2551,-1.81271 z m -468.46344,10.49916 c -2.48845,-7.81046 -18.02889,-64.67866 -18.02889,-65.97434 0,-1.1315 1.68116,-1.43633 7.92158,-1.43633 h 7.92158 l 1.03023,3.73122 c 8.32247,30.14155 10.8565,38.52789 11.59719,38.38066 0.48492,-0.0964 3.36132,-9.49906 6.39199,-20.89482 l 5.51033,-20.71956 7.82768,-0.29338 c 4.30522,-0.16136 8.22189,0.10084 8.70371,0.58265 0.48182,0.48183 3.27178,9.92828 6.19992,20.99212 4.97405,18.79431 6.02041,21.97292 6.88754,20.92283 0.18828,-0.22802 2.66827,-8.92176 5.51108,-19.31942 7.08522,-25.91442 5.55921,-23.52328 14.79041,-23.17544 7.29822,0.275 7.69716,0.40824 7.41129,2.47526 -0.16616,1.20155 -4.42769,16.87267 -9.47005,34.8247 l -9.16794,32.64008 h -8.88894 -8.88893 l -5.94134,-20.17578 c -3.26774,-11.09668 -6.27407,-19.82773 -6.68075,-19.40233 -0.40668,0.42538 -3.07466,8.83287 -5.92885,18.68329 -2.85418,9.85041 -5.59412,18.6934 -6.08874,19.65108 -0.74809,1.44843 -2.30263,1.74123 -9.24457,1.74123 h -8.34526 z m 91.42017,-27.11351 v -30.43817 l 6.71619,0.29421 6.7162,0.29421 v 29.84975 29.84974 l -6.7162,0.29421 -6.71619,0.29421 z m 24.87479,-0.0306 v -30.46878 l 19.15358,0.32483 c 17.08628,0.28976 19.5789,0.54793 23.09408,2.39187 5.49117,2.88048 8.49861,8.81136 8.49135,16.74553 -0.008,8.86893 -1.45163,12.91352 -5.99761,16.8047 -2.17071,1.85806 -3.94675,3.69487 -3.94675,4.08183 0,0.38695 2.42231,4.89907 5.38291,10.02692 2.96061,5.12785 5.12471,9.58158 4.80913,9.89716 -0.31559,0.31561 -3.58615,0.57382 -7.26793,0.57382 h -6.69414 l -5.6337,-9.94991 -5.63368,-9.94991 h -5.87765 -5.87765 l -0.28478,9.70116 -0.28478,9.70117 -6.71619,0.29421 -6.71619,0.29421 v -30.46878 z m 34.38578,-2.87415 c 1.50113,-1.09763 1.93141,-2.6152 1.93141,-6.81198 0,-8.08112 -0.88075,-8.69057 -12.55922,-8.69057 h -9.82809 v 8.45743 8.45743 h 9.26224 c 6.42884,0 9.85309,-0.43203 11.19366,-1.41228 z m 28.96201,32.58867 c -0.36483,-0.36479 -0.66333,-14.02105 -0.66333,-30.34721 v -29.6839 h 24.37729 24.37729 v 5.96995 5.96994 h -17.41235 -17.41235 v 5.84558 c 0,5.75105 0.0503,5.85563 3.10935,6.46744 1.71014,0.34203 7.53084,0.62187 12.93489,0.62187 h 9.82554 v 5.44273 5.44273 l -12.68614,0.27847 -12.68614,0.27847 v 5.96995 5.96995 l 17.1636,0.27224 17.1636,0.27225 v 5.94645 5.94645 h -23.71396 c -13.04268,0 -24.01247,-0.29849 -24.37729,-0.66333 z m 59.03616,-29.77708 v -30.44043 l 18.65609,0.37182 c 17.07889,0.34039 19.10783,0.57328 23.99967,2.75478 10.02538,4.47078 13.62401,12.97293 12.90067,30.47934 -0.34779,8.41726 -0.80669,10.59164 -3.13149,14.83754 -5.37521,9.81702 -13.07527,12.38362 -37.25132,12.41666 l -15.17362,0.0207 z m 34.66315,16.12384 c 5.0782,-2.66768 7.48835,-8.99747 6.9024,-18.12781 -0.79661,-12.41294 -4.33427,-15.52841 -18.3277,-16.14043 l -9.30797,-0.4071 v 18.64773 18.64773 l 8.70617,-0.43778 c 5.6335,-0.28328 9.87824,-1.05349 12.0271,-2.18234 z m 71.33133,13.07286 c -1.75268,-5.35396 -18.43523,-66.8707 -18.43523,-67.97971 0,-1.11168 1.7156,-1.42094 7.88277,-1.42094 h 7.88277 l 1.01475,3.23372 c 0.55812,1.77855 3.10409,10.84541 5.65773,20.14858 2.55363,9.30317 5.01195,17.58647 5.46293,18.40734 1.0871,1.97869 0.89373,2.54851 7.25938,-21.39231 l 5.29118,-19.89983 8.47952,-0.28531 8.47953,-0.2853 5.37318,20.51976 c 5.18561,19.80348 6.31036,23.31357 7.1486,22.30917 0.21513,-0.25777 3.03789,-9.87135 6.2728,-21.3635 l 5.88165,-20.89482 8.20868,-0.28899 c 4.51478,-0.15895 8.20868,-0.0771 8.20868,0.18189 0,1.58475 -19.16926,68.90826 -19.80335,69.55052 -0.42846,0.43395 -4.51751,0.65782 -9.08679,0.49749 l -8.3078,-0.29151 -2.6495,-8.95492 c -1.45721,-4.92521 -4.12261,-14.01647 -5.92309,-20.2028 -1.80049,-6.18633 -3.60566,-10.88766 -4.01149,-10.44741 -0.40584,0.44026 -3.32372,9.64345 -6.4842,20.45154 l -5.74631,19.65108 h -8.82462 c -6.17922,0 -8.94668,-0.37284 -9.23177,-1.24374 z m 155.68825,-29.05803 v -30.3927 l 17.1636,0.006 c 19.3146,0.006 23.7189,0.82365 28.367,5.26465 7.7587,7.41304 6.8175,25.36686 -1.6583,31.63331 -1.6927,1.25146 -3.0776,2.66267 -3.0776,3.136 0,0.47335 2.4223,5.05615 5.3829,10.18401 2.9606,5.12785 5.1247,9.58158 4.8091,9.89716 -0.3156,0.31558 -3.586,0.57379 -7.2676,0.57379 h -6.6938 l -5.683,-9.94991 -5.6831,-9.94992 h -5.8286 -5.8286 l -0.2848,9.70117 -0.2848,9.70117 -6.7162,0.29421 -6.7162,0.2942 v -30.3927 z m 34.3858,-2.95023 c 1.5011,-1.09766 1.9314,-2.61523 1.9314,-6.81201 0,-8.08112 -0.8807,-8.69057 -12.5592,-8.69057 h -9.8281 v 8.45743 8.45743 h 9.2623 c 6.4288,0 9.853,-0.43203 11.1936,-1.41228 z m 28.7493,31.99616 c -0.265,-0.69073 -0.3629,-14.23505 -0.2175,-30.09849 l 0.2644,-28.84265 6.6984,-0.2938 6.6984,-0.2938 0.2665,24.1736 0.2666,24.17359 17.1636,0.27224 17.1636,0.27225 v 5.94645 5.94645 h -23.911 c -18.334,0 -24.0235,-0.29291 -24.393,-1.25584 z m 59.2489,-29.0755 v -30.54953 l 18.7295,0.34194 c 18.5576,0.33881 18.7828,0.36936 24.5192,3.32693 4.7541,2.45113 6.3424,3.96367 8.881,8.45742 2.9827,5.28 3.0914,5.89237 3.0919,17.41235 5e-4,13.71233 -1.4944,19.07539 -6.7318,24.15172 -5.5824,5.41067 -10.099,6.44611 -30.3312,6.9534 l -18.1586,0.45531 z m 34.5591,16.06854 c 4.9559,-2.60475 6.7052,-6.80104 6.7052,-16.08443 0,-14.04003 -3.5219,-17.60323 -18.0265,-18.23761 l -9.3079,-0.4071 v 18.64773 18.64773 l 8.7061,-0.43778 c 5.5122,-0.27718 9.8864,-1.05807 11.9231,-2.12854 z M 416.49983,501.24133 c -60.77007,-5.03596 -113.0543,-29.39028 -154.04529,-71.75527 -37.21985,-38.46745 -58.98577,-83.51627 -66.28271,-137.18496 -1.98128,-14.57222 -1.69814,-48.75246 0.52337,-63.18195 10.76748,-69.9384 48.74441,-128.31095 109.048,-167.612578 15.91719,-10.3737 41.41419,-21.93414 61.19198,-27.74467 42.02216,-12.34574 93.46821,-11.98285 135.30943,0.95444 80.51281,24.89453 142.30581,89.639438 162.25211,170.003128 4.5635,18.3863 6.3472,31.33092 7.0639,51.26445 2.2419,62.35339 -19.6732,121.36824 -62.4979,168.29948 -32.1418,35.22385 -72.9452,59.24586 -120.42109,70.89485 -21.40105,5.2511 -51.45751,7.77717 -72.1418,6.06308 z m 32.02465,-13.9119 c 21.41844,-1.46912 37.83828,-4.69449 56.71451,-11.14052 11.01364,-3.76103 29.35223,-11.76415 29.35223,-12.80956 0,-0.423 -3.148,-6.56566 -6.99564,-13.65035 -7.72862,-14.23089 -9.06133,-19.5201 -6.99836,-27.77497 1.83884,-7.35795 6.18828,-13.1738 14.6896,-19.64212 10.6143,-8.07598 19.2043,-15.4977 19.2043,-16.59242 0,-1.75669 -27.44838,-17.73053 -30.55185,-17.77994 -0.65976,-0.0104 -2.81486,1.07708 -4.78912,2.41685 -1.97427,1.33977 -5.53701,2.72798 -7.91722,3.08492 -4.2191,0.63269 -4.49717,0.91331 -11.08505,11.18677 -9.27186,14.45899 -16.61155,23.5516 -30.08542,37.27065 -8.11012,8.2577 -10.91333,11.68607 -9.54515,11.67387 3.24863,-0.029 15.37899,-2.79313 24.57688,-5.60034 7.17995,-2.19133 9.14975,-2.45791 11.21363,-1.51755 3.40858,1.55306 4.84268,5.54695 3.22026,8.96822 -1.55574,3.28064 -12.17416,7.06845 -30.60628,10.9179 -11.3293,2.36606 -14.47629,2.59684 -35.32219,2.59024 -21.09454,-0.007 -23.87852,-0.21855 -35.58745,-2.70835 -15.26069,-3.24507 -29.31935,-7.62411 -39.8247,-12.40473 -4.56731,-2.07842 -8.10227,-3.15669 -8.60345,-2.6243 -0.68923,0.73214 -11.73313,20.40217 -16.86863,30.04431 -1.16826,2.19346 -0.87695,2.43375 8.0464,6.63742 22.71903,10.70263 49.38092,17.59956 74.92798,19.38248 15.98679,1.11571 17.56146,1.11914 32.83472,0.0715 z M 328.06416,440.6778 c 4.68808,-8.6883 8.52378,-16.25744 8.52378,-16.82031 0,-0.56288 -1.90292,-2.1398 -4.22871,-3.50426 -13.71804,-8.04793 -34.90255,-27.66132 -47.62482,-44.09279 -11.73591,-15.15751 -14.59597,-15.72925 -31.82986,-6.36299 -6.23606,3.38917 -11.75024,6.55614 -12.25373,7.03772 -0.93973,0.89881 6.71781,13.14013 15.21176,24.3175 6.04103,7.94952 24.66984,27.04322 33.97173,34.81951 7.20334,6.02192 27.63093,20.37387 29.02617,20.39313 0.37395,0.005 4.5156,-7.09923 9.20368,-15.78751 z m 224.84736,12.63111 c 16.373,-10.23961 35.5672,-26.59314 48.8576,-41.62692 10.2935,-11.6437 24.7837,-32.27088 24.0368,-34.21708 -0.4023,-1.04847 -16.4952,-10.30776 -30.1679,-17.35762 -1.9503,-1.00561 -2.5102,-0.52299 -6.4674,5.57418 -10.8521,16.72071 -25.6938,32.59942 -42.8487,45.8425 -15.4697,11.94213 -15.8992,14.26592 -6.0095,32.51605 3.6939,6.81662 6.9009,12.40304 7.1266,12.41426 0.2257,0.0113 2.6883,-1.40419 5.4725,-3.14537 z M 395.6605,421.40124 c -12.95956,-13.3264 -21.48956,-24.02313 -30.21831,-37.89413 -5.52926,-8.78664 -5.7975,-9.0421 -10.6397,-10.13265 -2.73209,-0.61532 -6.6042,-2.13035 -8.6047,-3.36672 l -3.63728,-2.24797 -12.46282,6.77839 c -6.85456,3.72811 -13.68327,7.7608 -15.17493,8.96153 l -2.71211,2.18315 3.97996,4.14087 c 4.2469,4.41858 18.62975,15.46149 26.90581,20.65781 7.34936,4.61447 26.61886,13.50859 35.77915,16.51439 8.06782,2.64732 23.31281,6.35661 26.75617,6.51009 1.25332,0.0559 -2.07714,-3.9872 -9.97124,-12.10476 z m 30.47667,-32.08847 v -40.29715 l -6.2187,0.006 c -6.81187,0.006 -21.75272,2.06124 -33.86319,4.65722 l -7.74465,1.66014 -3.02495,6.3382 -3.02494,6.3382 4.65745,7.47257 c 5.78549,9.28243 14.24971,20.62614 22.19439,29.74481 5.87795,6.74655 24.76599,24.23418 26.27835,24.33001 0.41043,0.0259 0.74624,-18.08654 0.74624,-40.24997 z m 26.03883,30.5855 c 16.16953,-14.75951 28.43006,-29.39311 37.70053,-44.99764 l 3.97193,-6.68574 -2.50143,-4.37593 c -1.37578,-2.40677 -2.50682,-5.14374 -2.51341,-6.08217 -0.0164,-2.33705 -2.1109,-3.23796 -11.95188,-5.14083 -11.92115,-2.30509 -22.28196,-3.53387 -30.0985,-3.56962 l -6.71619,-0.0307 v 40.29715 c 0,22.16343 0.33581,40.29244 0.74624,40.28666 0.41044,-0.006 5.52366,-4.37129 11.36271,-9.70116 z M 309.4434,370.54095 c 3.71097,-2.38944 11.50327,-6.87594 17.31623,-9.96999 l 10.56902,-5.62555 0.5017,-4.45104 c 0.29955,-2.65757 1.5524,-5.82858 3.10935,-7.86985 l 2.60767,-3.41881 -3.48553,-12.10967 c -4.24427,-14.74578 -7.31304,-31.2628 -8.03603,-43.25236 -0.29699,-4.92521 -0.74378,-9.96235 -0.99286,-11.19366 l -0.45287,-2.23873 H 301.27234 271.9646 l -1.517,2.93355 c -0.83434,1.61344 -3.08457,4.12919 -5.00051,5.59054 -2.68308,2.04648 -3.48051,3.37291 -3.47044,5.77264 0.0188,4.47863 3.46775,20.56509 6.59474,30.75885 l 2.68258,8.74504 -2.00734,2.70069 c -2.68883,3.61755 -7.12861,4.06649 -9.95145,1.00627 -1.15955,-1.25705 -3.24219,-5.90741 -4.62809,-10.33412 -2.61633,-8.35685 -6.63339,-27.58718 -6.63339,-31.75515 0,-1.48622 -1.01023,-3.06677 -2.67055,-4.17821 -1.46879,-0.98322 -4.33646,-3.44072 -6.37259,-5.46109 -8.64681,-8.5799 -6.36904,-23.80073 4.5164,-30.18002 4.16948,-2.44348 4.2685,-2.62544 4.92721,-9.05493 1.37843,-13.45427 9.26096,-39.84577 15.62947,-52.32908 1.70394,-3.34001 1.82597,-4.23199 0.72159,-5.27457 -1.50712,-1.42277 -30.58878,-17.39447 -31.67228,-17.39447 -1.63229,0 -11.53798,23.99321 -15.40449,37.31218 -14.99959,51.66912 -11.82632,103.49543 9.38415,153.26376 2.32405,5.45316 4.66357,10.45077 5.19893,11.10582 0.73032,0.89359 2.50672,0.31771 7.11403,-2.30628 15.54799,-8.85495 21.66636,-11.3221 28.0781,-11.3221 11.49303,0 17.79858,3.76133 27.31463,16.29352 3.55709,4.68453 6.78929,8.5317 7.18266,8.54929 0.39337,0.0176 3.75147,-1.92303 7.46244,-4.31247 z m 262.20142,-4.36173 c 15.6128,-21.20894 25.5327,-43.17325 30.4454,-67.41067 3.4984,-17.25956 3.5212,-16.02948 -0.352,-18.98368 -1.8901,-1.44169 -4.3756,-4.14054 -5.5232,-5.99742 l -2.0866,-3.37616 h -29.2711 c -16.0991,0 -29.2726,0.33581 -29.2745,0.74625 0,0.41043 -0.4789,5.89532 -1.0602,12.18864 -1.3471,14.58625 -5.02929,33.60744 -8.90732,46.01333 l -3.03096,9.69614 2.08231,2.81647 c 1.14527,1.54907 2.63555,4.9852 3.31174,7.63586 0.67619,2.65065 1.88103,5.15785 2.67743,5.57156 9.6379,5.0067 25.3755,13.8631 29.2944,16.48559 2.7289,1.82614 5.0346,3.32026 5.1237,3.32026 0.089,0 3.046,-3.91778 6.5709,-8.70617 z m 66.6297,-10.69616 c 7.9604,-17.89485 13.8697,-37.51947 17.3772,-57.7095 2.4372,-14.02951 2.4971,-53.40166 0.1037,-68.20605 -3.277,-20.2701 -9.7768,-41.77169 -18.2436,-60.35087 -1.8195,-3.99268 -3.5815,-7.25941 -3.9156,-7.25941 -0.334,0 -5.8444,2.87774 -12.2452,6.395 -6.4009,3.51724 -13.7896,6.93476 -16.4194,7.59448 -6.188,1.55231 -13.2483,0.67361 -19.2695,-2.39824 -5.2576,-2.68227 -7.5617,-4.93833 -14.7103,-14.40345 -2.6147,-3.46207 -5.3268,-6.51445 -6.0269,-6.78308 -0.7,-0.26863 -6.3681,2.56397 -12.5958,6.29467 -6.2276,3.7307 -14.1096,8.09672 -17.5154,9.70226 -4.8503,2.2865 -6.19243,3.39674 -6.19243,5.12267 0,1.21192 -1.32811,4.72829 -2.95137,7.81414 l -2.95138,5.61066 3.46445,12.0364 c 4.04983,14.07021 6.96733,29.75726 8.38813,45.10128 0.5574,6.0197 1.0138,11.28072 1.0143,11.69115 4e-4,0.41043 13.1978,0.74624 29.3275,0.74624 h 29.3267 l 1.5203,-2.93988 c 0.8361,-1.61694 3.2746,-4.34969 5.4187,-6.07279 3.5347,-2.8405 3.8502,-3.47157 3.3807,-6.76128 -0.8831,-6.18868 -5.2239,-25.21798 -7.1803,-31.4779 -1.8991,-6.07622 -1.5,-9.9474 1.2027,-11.66591 2.1516,-1.36812 7.315,-0.8105 8.8845,0.95951 2.9165,3.28903 8.1173,22.89654 11.1505,42.03839 0.4333,2.73509 1.3444,3.90954 4.2451,5.47245 8.2432,4.44144 12.1666,15.04868 8.8137,23.82822 -1.5327,4.01334 -6.4945,9.45535 -10.9452,12.00459 -1.2872,0.73727 -2.121,3.41034 -3.1036,9.94991 -1.981,13.18469 -5.9344,27.4254 -11.0452,39.78655 -2.4888,6.01969 -4.5934,12.02471 -4.6768,13.34446 -0.1336,2.11462 1.7368,3.43993 15.7513,11.16094 8.7465,4.81875 16.1671,8.44029 16.4902,8.04785 0.323,-0.39244 2.1808,-4.2955 4.1283,-8.67346 z M 383.81533,340.06784 c 35.01262,-7.20413 65.21887,-7.15591 102.94668,0.16435 4.86479,0.94391 6.49095,0.9619 6.78655,0.0751 0.62682,-1.88046 6.81235,-5.27671 11.91092,-6.53986 l 4.71926,-1.16917 2.42276,-8.20808 c 1.33252,-4.51445 2.23594,-8.38799 2.00759,-8.60786 -0.45652,-0.43957 -44.77773,-24.81341 -59.2597,-32.58904 l -9.09494,-4.88324 -3.78599,2.23379 c -5.0214,2.96269 -12.37539,2.98798 -18.28756,0.0629 l -4.38781,-2.17092 -32.8964,17.98047 c -18.09302,9.88926 -33.45088,18.50463 -34.12857,19.14528 -0.97522,0.9219 -0.71424,2.8513 1.25146,9.25212 l 2.48364,8.08732 4.89668,1.1747 c 2.94161,0.70569 6.4146,2.51573 8.69846,4.53343 2.09096,1.84731 3.8644,3.37738 3.94098,3.40015 0.0766,0.0228 4.47577,-0.85085 9.77599,-1.94141 z m -1.95528,-56.49281 c 30.46868,-16.71027 30.84806,-16.95733 31.11711,-20.26384 l 0.27237,-3.34731 -31.09174,-16.91485 c -17.10046,-9.30317 -31.77477,-16.91486 -32.60959,-16.91486 -2.40527,0 -4.15661,14.38602 -4.30007,35.3222 -0.11019,16.07936 1.45636,36.6538 2.97873,39.12124 0.6929,1.12307 -0.70163,1.82805 33.63319,-17.00258 z m 137.93513,6.49866 c 2.6153,-19.77287 0.8903,-64.5596 -2.47948,-64.37501 -0.62249,0.0341 -15.23581,7.77033 -32.47403,17.19162 -31.13538,17.01657 -31.34223,17.15086 -31.34223,20.34781 0,3.19904 0.18925,3.32131 31.80213,20.54627 17.49119,9.53044 32.10387,17.1416 32.47265,16.91369 0.36879,-0.22793 1.27822,-5.0089 2.02096,-10.62438 z M 330.98585,254.24268 c 0.32998,-1.2313 0.61428,-4.47746 0.63178,-7.21369 0.072,-11.26402 4.18647,-33.81441 9.10634,-49.90988 l 3.09036,-10.11022 -2.32222,-3.26125 c -1.27722,-1.7937 -2.79915,-5.1396 -3.38205,-7.43534 -1.00979,-3.97692 -1.50549,-4.40688 -10.49466,-9.10268 -5.18913,-2.71074 -13.18595,-7.32135 -17.77068,-10.2458 l -8.33587,-5.31718 -2.85507,3.41405 c -15.77032,18.85796 -29.47087,47.90014 -34.69875,73.55372 -2.93189,14.38707 -2.8019,15.46034 2.43021,20.06582 2.43191,2.14066 4.70082,4.77164 5.04201,5.84664 0.59801,1.88418 1.67052,1.95454 29.7895,1.95454 h 29.16915 z m 93.65883,-8.70617 c 5.15696,-2.62917 12.33383,-2.59087 17.59642,0.0939 3.41343,1.7414 4.51072,1.89352 6.67656,0.9256 3.89649,-1.74137 62.07159,-33.60792 64.21396,-35.17445 1.80016,-1.31632 1.77065,-1.64666 -0.935,-10.46691 -2.49661,-8.13878 -3.04518,-9.1077 -5.15643,-9.1077 -3.34981,0 -9.32504,-2.67285 -12.26034,-5.48431 l -2.49922,-2.39378 -7.45069,1.88877 c -29.10469,7.37809 -68.69413,7.75968 -101.42305,0.97758 l -9.98507,-2.06911 -3.56227,2.71708 c -1.95925,1.49438 -5.65747,3.23849 -8.21827,3.87579 -4.57791,1.13927 -4.69229,1.26576 -6.81861,7.53953 -4.2579,12.56314 -7.35575,9.48688 30.51985,30.30715 18.33272,10.07753 33.79722,18.33134 34.36557,18.3418 0.56835,0.0105 2.78981,-0.87647 4.93659,-1.97096 z m 1.49249,-107.95657 c 0,-22.16344 -0.36707,-40.297158 -0.81572,-40.297158 -0.44865,0 -5.26193,3.958298 -10.69616,8.796218 -14.48366,12.89432 -28.95058,30.24653 -38.65949,46.36977 l -3.42101,5.68115 2.4189,4.54932 c 1.3304,2.50214 2.4189,5.35171 2.4189,6.3324 0,0.98069 0.37313,2.01367 0.82918,2.29553 3.00848,1.85934 31.54274,6.11163 43.19919,6.43771 l 4.72621,0.13221 z m 30.34724,38.72762 c 7.76792,-0.69351 26.23766,-4.0221 29.77006,-5.36511 1.46793,-0.55811 2.51272,-1.99679 2.91659,-4.01617 0.34612,-1.73059 1.56652,-4.46273 2.712,-6.07141 l 2.08269,-2.92487 -5.18474,-8.18505 c -6.62053,-10.4517 -15.61361,-21.98497 -24.94363,-31.98924 -7.52821,-8.07223 -21.41546,-20.472928 -22.92717,-20.472928 -0.46374,0 -0.84316,18.175738 -0.84316,40.390528 v 40.39052 l 4.72621,-0.56722 c 2.59942,-0.31197 7.86043,-0.84705 11.69115,-1.18905 z M 277.38595,160.71991 c 10.27385,-15.99141 27.31758,-34.14912 43.40087,-46.2376 14.64357,-11.00634 15.16869,-14.20432 5.28382,-32.177668 -3.59553,-6.53765 -6.90462,-11.88663 -7.35354,-11.88663 -1.46674,0 -18.2626,11.4556 -26.37706,17.99043 -10.70039,8.61738 -26.66613,24.532538 -34.35545,34.246628 -7.60022,9.6015 -18.08488,25.34762 -17.68221,26.55559 0.33133,0.994 30.58897,17.66173 32.10861,17.68735 0.54724,0.009 2.78598,-2.77092 4.97496,-6.1781 z m 336.30707,-4.15018 c 6.567,-3.49352 12.0665,-6.97396 12.2211,-7.73431 0.3532,-1.73597 -11.9513,-19.76451 -20.2449,-29.66282 -7.2422,-8.64361 -20.9673,-22.203088 -30.3084,-29.942758 -7.1074,-5.8889 -25.9578,-18.81183 -27.4404,-18.81183 -0.8541,0 -18.30414,30.614928 -18.30414,32.113388 0,0.36338 3.35494,2.92456 7.45534,5.69151 16.5089,11.14006 29.7529,23.5605 44.0295,41.29147 4.8445,6.01671 9.9059,11.49499 11.2476,12.17398 4.8606,2.45972 8.9361,1.48235 21.3443,-5.11863 z m -264.46835,-2.95355 c 1.75137,-0.88487 4.8856,-1.62826 6.96494,-1.65197 3.68335,-0.042 3.92144,-0.27482 9.25308,-9.04835 7.51004,-12.35823 20.34269,-28.30904 32.14793,-39.95943 5.43305,-5.361788 9.71118,-9.915808 9.50695,-10.120038 -0.65503,-0.65503 -17.99656,3.22576 -26.62336,5.95795 -8.32137,2.635448 -8.35992,2.637968 -10.94491,0.71651 -3.28897,-2.44475 -4.04562,-8.04888 -1.39865,-10.35896 4.85831,-4.23995 31.53917,-10.39952 51.76144,-11.9497 18.22537,-1.3971 35.25074,-0.18719 52.8226,3.75386 12.31756,2.7626 31.5129,9.10919 39.14494,12.94256 3.53895,1.77753 4.85071,2.04011 5.56405,1.11378 3.06669,-3.98233 17.25864,-31.84836 16.54164,-32.47968 -2.3509,-2.06998 -23.47504,-10.51549 -34.82042,-13.9213 -24.65043,-7.39992 -39.22341,-9.48821 -66.04279,-9.46387 -26.29963,0.0239 -41.31984,2.16958 -65.4114,9.34433 -13.04928,3.88622 -32.88619,11.8762 -35.85199,14.44059 -0.14947,0.12924 2.85746,5.97663 6.68207,12.99421 9.20974,16.89849 10.16904,24.166938 4.63176,35.094228 -2.59588,5.12273 -5.58941,8.0686 -18.06883,17.78114 -8.03996,6.25739 -14.0654,11.96031 -13.29803,12.58625 3.03805,2.47809 12.31839,8.08524 20.28855,12.25827 9.73799,5.09864 10.01672,5.1778 11.96816,3.39935 1.09887,-1.00147 3.43089,-2.54484 5.18227,-3.42973 z m 185.27715,-0.77622 c 5.248,-2.82551 11.9066,-6.70409 14.7968,-8.61907 l 5.255,-3.48177 -2.7675,-2.91887 c -13.1385,-13.85701 -39.76275,-29.94569 -62.80671,-37.953218 -9.27825,-3.22409 -28.94169,-7.96171 -29.73837,-7.16503 -0.1752,0.1752 4.75382,5.4192 10.95339,11.653338 10.94318,11.0042 25.2849,29.13741 32.72245,41.37319 3.47849,5.72259 3.8624,6.02537 8.26995,6.52217 2.70941,0.30538 6.13591,1.59805 8.28024,3.12376 2.01197,1.43155 4.07094,2.6028 4.57549,2.6028 0.50454,0 5.2112,-2.31178 10.45926,-5.1373 z"
       id="path302" /></g></svg>
